<?xml version="1.0" encoding="utf-8"?>
<!-- Generator: Adobe Illustrator 16.0.0, SVG Export Plug-In . SVG Version: 6.00 Build 0)  -->
<!DOCTYPE svg PUBLIC "-//W3C//DTD SVG 1.1//EN" "http://www.w3.org/Graphics/SVG/1.1/DTD/svg11.dtd">
<svg version="1.1" id="Layer_1" xmlns="http://www.w3.org/2000/svg" xmlns:xlink="http://www.w3.org/1999/xlink" x="0px" y="0px"
	 width="600.074px" height="243.713px" viewBox="0 0 600.074 243.713" enable-background="new 0 0 600.074 243.713"
	 xml:space="preserve">
<g>
	<path fill="none" d="M479.604,103.018c2.492,2.712,5.49,4.787,9.004,6.227c3.518,1.439,7.426,2.159,11.725,2.159
		c4.336,0,8.264-0.72,11.777-2.159c3.518-1.439,6.506-3.515,8.977-6.227c2.469-2.711,4.373-6.02,5.721-9.927
		c1.348-3.908,2.02-8.33,2.02-13.267c0-4.936-0.672-9.367-2.02-13.294c-1.348-3.926-3.252-7.243-5.721-9.956
		c-2.471-2.711-5.459-4.795-8.977-6.254c-3.514-1.458-7.441-2.188-11.777-2.188c-4.299,0-8.207,0.729-11.725,2.188
		c-3.514,1.459-6.512,3.543-9.004,6.254c-2.484,2.713-4.398,6.03-5.746,9.956c-1.348,3.927-2.02,8.358-2.02,13.294
		c0,4.937,0.672,9.358,2.02,13.267C475.205,96.999,477.119,100.307,479.604,103.018z"/>
	<path fill="none" d="M203.562,61.939c0-5.051-1.441-9.38-4.087-11.905c-3.128-3.006-7.696-4.208-16.355-4.208
		c-2.885,0-8.296,0.24-11.182,0.36v32.829c4.087,0.24,5.65,0.359,8.536,0.359C196.589,79.375,203.562,74.084,203.562,61.939z"/>
	<path fill="none" d="M100.083,57.444c-0.377-0.971-0.771-2.103-1.18-3.393c-0.414-1.291-0.808-2.665-1.18-4.122
		c-0.781,3.027-1.589,5.553-2.412,7.571L82.69,90.145h30.009L100.083,57.444z"/>
	<path fill="none" d="M6,237.713h588.074V6H6V237.713z M539.988,206.503H60.086v-3h479.902V206.503z M463.59,63.25
		c1.91-5.028,4.605-9.367,8.08-13.013c3.477-3.646,7.646-6.479,12.506-8.498c4.861-2.02,10.246-3.028,16.156-3.028
		s11.305,1.009,16.182,3.028c4.881,2.02,9.061,4.853,12.537,8.498s6.172,7.984,8.074,13.013c1.91,5.03,2.863,10.556,2.863,16.575
		c0,6.021-0.953,11.546-2.863,16.575c-1.902,5.029-4.598,9.357-8.074,12.985c-3.477,3.627-7.656,6.441-12.537,8.441
		c-4.877,2.001-10.271,3-16.182,3s-11.295-0.999-16.156-3c-4.859-2-9.029-4.814-12.506-8.441c-3.475-3.628-6.17-7.956-8.08-12.985
		c-1.902-5.029-2.857-10.555-2.857-16.575C460.732,73.805,461.688,68.28,463.59,63.25z M375.305,39.607h62.934v9.144h-26.023v71.235
		h-10.828V48.75h-26.082V39.607z M296.569,60.667c0-12.974,11.566-21.938,27.146-21.938c11.918,0,21.24,4.129,27.854,11.086
		l-5.904,7.196c-5.898-6.605-14.164-9.436-22.773-9.436c-9.328,0-16.17,5.072-16.17,12.502c0,17.691,46.613,7.548,46.613,36.917
		c0,11.32-7.785,23.117-29.033,23.117c-13.57,0-23.715-5.189-30.212-12.503l5.898-7.55c5.082,5.897,13.576,11.323,24.671,11.323
		c14.043,0,18.531-7.548,18.531-13.681C343.189,77.417,296.569,88.738,296.569,60.667z M254.61,39.607h10.88v80.379h-10.88V39.607z
		 M162.077,39.573h4.087l7.696-0.12l7.696-0.241c0.843,0,1.683,0,2.526,0c7.334,0,11.783,0.361,15.993,1.443
		c8.417,1.924,14.309,10.221,14.309,20.202c0,10.1-5.531,17.316-16.955,22.006c5.773,10.34,14.07,22.005,19.24,27.176
		c3.007,3.005,6.613,4.811,10.942,5.531l-1.202,3.968c-0.239,0.723-0.601,0.843-2.044,0.843c-5.891,0-9.981-0.961-13.228-3.127
		c-5.65-3.729-13.107-13.468-22.486-29.701l-1.441-2.405c-3.729,0.48-5.172,0.601-10.223,0.601c-1.922,0-2.765,0-5.049-0.12v34.151
		h-9.861V39.573z M92.228,39.607h10.996l32.137,80.379h-8.411c-0.975,0-1.762-0.242-2.359-0.729s-1.043-1.103-1.342-1.852
		l-7.519-19.407H79.665l-7.519,19.407c-0.22,0.673-0.655,1.271-1.29,1.795c-0.634,0.524-1.421,0.785-2.354,0.785h-8.416
		L92.228,39.607z M60.085,137.903h479.903v61.979H60.085V137.903z"/>
	<path fill="#888B8D" d="M0,0v243.713h600.074V0H0z M594.074,237.713H6V6h588.074V237.713z"/>
	<path fill="#AF272F" d="M70.855,119.201c0.635-0.523,1.07-1.122,1.29-1.795l7.519-19.407h36.065l7.519,19.407
		c0.299,0.749,0.745,1.365,1.342,1.852s1.384,0.729,2.359,0.729h8.411l-32.137-80.379H92.228l-32.143,80.379h8.416
		C69.435,119.986,70.221,119.725,70.855,119.201z M95.312,57.5c0.823-2.019,1.631-4.544,2.412-7.571
		c0.372,1.457,0.766,2.831,1.18,4.122c0.409,1.29,0.802,2.422,1.18,3.393l12.616,32.701H82.69L95.312,57.5z"/>
	<rect x="254.61" y="39.607" fill="#AF272F" width="10.88" height="80.379"/>
	<path fill="#AF272F" d="M324.658,111.382c-11.096,0-19.59-5.426-24.671-11.323l-5.898,7.55
		c6.498,7.313,16.642,12.503,30.212,12.503c21.248,0,29.033-11.797,29.033-23.117c0-29.369-46.613-19.226-46.613-36.917
		c0-7.43,6.842-12.502,16.17-12.502c8.609,0,16.875,2.83,22.773,9.436l5.904-7.196c-6.613-6.957-15.936-11.086-27.854-11.086
		c-15.58,0-27.146,8.965-27.146,21.938c0,28.07,46.621,16.749,46.621,37.034C343.189,103.834,338.701,111.382,324.658,111.382z"/>
	<polygon fill="#AF272F" points="401.387,119.986 412.215,119.986 412.215,48.75 438.238,48.75 438.238,39.607 375.305,39.607 
		375.305,48.75 401.387,48.75 	"/>
	<path fill="#AF272F" d="M471.67,109.385c3.477,3.627,7.646,6.441,12.506,8.441c4.861,2.001,10.246,3,16.156,3
		s11.305-0.999,16.182-3c4.881-2,9.061-4.814,12.537-8.441c3.477-3.628,6.172-7.956,8.074-12.985
		c1.91-5.029,2.863-10.555,2.863-16.575c0-6.02-0.953-11.545-2.863-16.575c-1.902-5.028-4.598-9.367-8.074-13.013
		s-7.656-6.479-12.537-8.498c-4.877-2.02-10.271-3.028-16.182-3.028s-11.295,1.009-16.156,3.028
		c-4.859,2.02-9.029,4.853-12.506,8.498c-3.475,3.646-6.17,7.984-8.08,13.013c-1.902,5.03-2.857,10.556-2.857,16.575
		c0,6.021,0.955,11.546,2.857,16.575C465.5,101.429,468.195,105.757,471.67,109.385z M473.857,66.531
		c1.348-3.926,3.262-7.243,5.746-9.956c2.492-2.711,5.49-4.795,9.004-6.254c3.518-1.458,7.426-2.188,11.725-2.188
		c4.336,0,8.264,0.729,11.777,2.188c3.518,1.459,6.506,3.543,8.977,6.254c2.469,2.713,4.373,6.03,5.721,9.956
		c1.348,3.927,2.02,8.358,2.02,13.294c0,4.937-0.672,9.358-2.02,13.267c-1.348,3.907-3.252,7.216-5.721,9.927
		c-2.471,2.712-5.459,4.787-8.977,6.227c-3.514,1.439-7.441,2.159-11.777,2.159c-4.299,0-8.207-0.72-11.725-2.159
		c-3.514-1.439-6.512-3.515-9.004-6.227c-2.484-2.711-4.398-6.02-5.746-9.927c-1.348-3.908-2.02-8.33-2.02-13.267
		C471.838,74.889,472.51,70.458,473.857,66.531z"/>
	<path fill="#888B8D" d="M539.988,137.903H60.085v61.979h479.903V137.903z M105.993,174.175c-0.625,1.594-1.503,2.957-2.64,4.098
		c-1.136,1.143-2.5,2.031-4.092,2.662c-1.591,0.629-3.363,0.945-5.311,0.945h-9.805v-25.955h9.805c1.948,0,3.72,0.314,5.311,0.945
		c1.592,0.631,2.956,1.52,4.092,2.658c1.137,1.141,2.015,2.508,2.64,4.098c0.625,1.596,0.94,3.355,0.94,5.275
		C106.933,170.823,106.618,172.579,105.993,174.175z M144.692,181.88h-16.186v-25.955h16.186v3.404h-11.949v7.824h9.552v3.299
		h-9.552v8.02h11.97L144.692,181.88z M177.409,181.88h-3.808l-10.523-25.955h3.368c0.372,0,0.671,0.094,0.904,0.279
		c0.228,0.186,0.403,0.418,0.522,0.691l6.685,16.928c0.361,0.947,0.692,2.043,0.992,3.279c0.134-0.611,0.274-1.195,0.423-1.748
		c0.15-0.553,0.315-1.064,0.496-1.531l6.67-16.928c0.098-0.238,0.263-0.459,0.506-0.666c0.238-0.205,0.538-0.305,0.899-0.305h3.389
		L177.409,181.88z M224.09,181.88h-16.185v-25.955h16.185v3.404h-11.949v7.824h9.553v3.299h-9.553v8.02h11.97L224.09,181.88z
		 M260.609,181.88h-14.998v-25.955h4.216v22.422h10.782V181.88z M303.582,174.218c-0.627,1.621-1.51,3.02-2.646,4.189
		c-1.131,1.172-2.495,2.09-4.091,2.752c-1.591,0.66-3.358,0.988-5.305,0.988c-1.938,0-3.699-0.328-5.291-0.988
		c-1.591-0.662-2.96-1.58-4.102-2.752c-1.142-1.17-2.025-2.568-2.65-4.189c-0.625-1.621-0.935-3.395-0.935-5.316
		c0-1.92,0.31-3.693,0.935-5.314c0.625-1.625,1.509-3.023,2.65-4.201c1.142-1.178,2.511-2.098,4.102-2.758
		c1.591-0.662,3.353-0.992,5.291-0.992c1.947,0,3.714,0.33,5.305,0.992c1.596,0.66,2.96,1.58,4.091,2.758
		c1.137,1.178,2.02,2.576,2.646,4.201c0.623,1.621,0.935,3.395,0.935,5.314C304.517,170.823,304.205,172.597,303.582,174.218z
		 M343.412,167.487c-0.42,1.027-1.044,1.91-1.876,2.65c-0.826,0.738-1.86,1.314-3.09,1.729c-1.229,0.414-2.666,0.621-4.298,0.621
		h-3.859v9.393h-4.215v-25.955h8.074c1.694,0,3.163,0.195,4.407,0.594c1.246,0.398,2.273,0.951,3.083,1.668
		c0.812,0.713,1.416,1.574,1.808,2.576c0.398,1.006,0.596,2.113,0.596,3.324C344.042,165.327,343.835,166.458,343.412,167.487z
		 M392.639,181.88h-3.714v-17.793c0-0.287,0.01-0.602,0.026-0.945c0.02-0.34,0.046-0.688,0.083-1.035l-8.35,15.412
		c-0.319,0.635-0.822,0.953-1.492,0.953h-0.594c-0.688,0-1.189-0.318-1.499-0.953l-8.473-15.449c0.037,0.35,0.063,0.699,0.083,1.047
		c0.015,0.348,0.026,0.672,0.026,0.971v17.793h-3.716v-25.955h3.156c0.374,0,0.663,0.031,0.864,0.098
		c0.206,0.068,0.393,0.27,0.562,0.605l8.329,15.084c0.176,0.352,0.352,0.709,0.511,1.074c0.16,0.367,0.31,0.742,0.438,1.127
		c0.146-0.385,0.301-0.768,0.461-1.146c0.165-0.377,0.335-0.738,0.517-1.09l8.198-15.049c0.171-0.336,0.357-0.537,0.563-0.605
		c0.201-0.066,0.49-0.098,0.862-0.098h3.156V181.88z M431.933,181.88h-16.186v-25.955h16.186v3.404h-11.95v7.824h9.553v3.299h-9.553
		v8.02h11.971L431.933,181.88z M474.94,181.88h-2.145c-0.325,0-0.604-0.057-0.83-0.172c-0.229-0.113-0.444-0.305-0.646-0.568
		l-14.259-18.312c0.036,0.348,0.062,0.695,0.077,1.039c0.02,0.34,0.032,0.656,0.032,0.943v17.07h-3.716v-25.955h2.201
		c0.176,0,0.331,0.008,0.46,0.025c0.123,0.018,0.242,0.053,0.352,0.098c0.104,0.049,0.206,0.123,0.305,0.219
		c0.094,0.098,0.196,0.215,0.306,0.361l14.272,18.328c-0.03-0.371-0.062-0.738-0.077-1.098c-0.02-0.361-0.026-0.697-0.026-1.01
		v-16.924h3.694V181.88z M515.929,159.438h-8.097v22.441h-4.199v-22.441h-8.11v-3.514h20.406V159.438z"/>
	<path fill="#888B8D" d="M297.873,161.856c-0.75-0.834-1.658-1.469-2.728-1.912c-1.069-0.445-2.273-0.666-3.606-0.666
		c-1.323,0-2.516,0.221-3.585,0.666c-1.069,0.443-1.984,1.078-2.743,1.912c-0.754,0.826-1.338,1.836-1.747,3.027
		c-0.408,1.188-0.614,2.527-0.614,4.018c0,1.504,0.206,2.848,0.614,4.037c0.408,1.191,0.992,2.195,1.747,3.02
		c0.759,0.822,1.674,1.453,2.743,1.893c1.069,0.438,2.262,0.658,3.585,0.658c1.333,0,2.537-0.221,3.606-0.658
		c1.069-0.439,1.978-1.07,2.728-1.893c0.754-0.824,1.328-1.828,1.73-3.02c0.403-1.189,0.604-2.533,0.604-4.037
		c0-1.49-0.201-2.83-0.604-4.018C299.2,163.692,298.626,162.683,297.873,161.856z"/>
	<path fill="#888B8D" d="M338.436,160.521c-0.464-0.422-1.058-0.742-1.771-0.965c-0.719-0.221-1.556-0.336-2.517-0.336h-3.859v9.936
		h3.859c0.935,0,1.761-0.121,2.48-0.361c0.713-0.24,1.307-0.58,1.781-1.018c0.477-0.439,0.832-0.971,1.074-1.596
		c0.238-0.627,0.357-1.324,0.357-2.094c0-0.754-0.113-1.434-0.352-2.035C339.258,161.452,338.906,160.94,338.436,160.521z"/>
	<path fill="#888B8D" d="M100.29,161.87c-0.754-0.814-1.663-1.443-2.733-1.883c-1.069-0.436-2.268-0.658-3.606-0.658h-5.569v19.143
		h5.569c1.338,0,2.537-0.213,3.606-0.648c1.07-0.434,1.979-1.059,2.733-1.885c0.749-0.822,1.328-1.824,1.73-3.008
		c0.403-1.186,0.604-2.525,0.604-4.029c0-1.49-0.201-2.83-0.604-4.018C101.617,163.692,101.039,162.69,100.29,161.87z"/>
	<path fill="#FFFFFF" d="M103.353,159.528c-1.136-1.139-2.5-2.027-4.092-2.658c-1.591-0.631-3.363-0.945-5.311-0.945h-9.805v25.955
		h9.805c1.948,0,3.72-0.316,5.311-0.945c1.592-0.631,2.956-1.52,4.092-2.662c1.137-1.141,2.015-2.504,2.64-4.098
		c0.625-1.596,0.94-3.352,0.94-5.273c0-1.92-0.315-3.68-0.94-5.275C105.368,162.036,104.49,160.669,103.353,159.528z
		 M102.02,172.931c-0.403,1.184-0.981,2.186-1.73,3.008c-0.754,0.826-1.663,1.451-2.733,1.885c-1.069,0.436-2.268,0.648-3.606,0.648
		h-5.569v-19.143h5.569c1.338,0,2.537,0.223,3.606,0.658c1.07,0.439,1.979,1.068,2.733,1.883c0.749,0.82,1.328,1.822,1.73,3.014
		c0.403,1.188,0.604,2.527,0.604,4.018C102.625,170.405,102.423,171.745,102.02,172.931z"/>
	<polygon fill="#FFFFFF" points="132.743,170.452 142.295,170.452 142.295,167.153 132.743,167.153 132.743,159.329 
		144.692,159.329 144.692,155.925 128.507,155.925 128.507,181.88 144.692,181.88 144.713,178.472 132.743,178.472 	"/>
	<path fill="#FFFFFF" d="M183.645,156.229c-0.243,0.207-0.408,0.428-0.506,0.666l-6.67,16.928c-0.181,0.467-0.346,0.979-0.496,1.531
		c-0.149,0.553-0.289,1.137-0.423,1.748c-0.299-1.236-0.63-2.332-0.992-3.279l-6.685-16.928c-0.119-0.273-0.294-0.506-0.522-0.691
		c-0.232-0.186-0.532-0.279-0.904-0.279h-3.368l10.523,25.955h3.808l10.523-25.955h-3.389
		C184.182,155.925,183.882,156.024,183.645,156.229z"/>
	<polygon fill="#FFFFFF" points="212.141,170.452 221.693,170.452 221.693,167.153 212.141,167.153 212.141,159.329 224.09,159.329 
		224.09,155.925 207.905,155.925 207.905,181.88 224.09,181.88 224.11,178.472 212.141,178.472 	"/>
	<polygon fill="#FFFFFF" points="249.828,155.925 245.612,155.925 245.612,181.88 260.609,181.88 260.609,178.347 249.828,178.347 	
		"/>
	<path fill="#FFFFFF" d="M300.936,159.386c-1.131-1.178-2.495-2.098-4.091-2.758c-1.591-0.662-3.358-0.992-5.305-0.992
		c-1.938,0-3.699,0.33-5.291,0.992c-1.591,0.66-2.96,1.58-4.102,2.758c-1.142,1.178-2.025,2.576-2.65,4.201
		c-0.625,1.621-0.935,3.395-0.935,5.314c0,1.922,0.31,3.695,0.935,5.316c0.625,1.621,1.509,3.02,2.65,4.189
		c1.142,1.172,2.511,2.09,4.102,2.752c1.591,0.66,3.353,0.988,5.291,0.988c1.947,0,3.714-0.328,5.305-0.988
		c1.596-0.662,2.96-1.58,4.091-2.752c1.137-1.17,2.02-2.568,2.646-4.189c0.623-1.621,0.935-3.395,0.935-5.316
		c0-1.92-0.312-3.693-0.935-5.314C302.955,161.962,302.072,160.563,300.936,159.386z M299.603,172.938
		c-0.403,1.191-0.977,2.195-1.73,3.02c-0.75,0.822-1.658,1.453-2.728,1.893c-1.069,0.438-2.273,0.658-3.606,0.658
		c-1.323,0-2.516-0.221-3.585-0.658c-1.069-0.439-1.984-1.07-2.743-1.893c-0.754-0.824-1.338-1.828-1.747-3.02
		c-0.408-1.189-0.614-2.533-0.614-4.037c0-1.49,0.206-2.83,0.614-4.018c0.408-1.191,0.992-2.201,1.747-3.027
		c0.759-0.834,1.674-1.469,2.743-1.912c1.069-0.445,2.262-0.666,3.585-0.666c1.333,0,2.537,0.221,3.606,0.666
		c1.069,0.443,1.978,1.078,2.728,1.912c0.754,0.826,1.328,1.836,1.73,3.027c0.403,1.188,0.604,2.527,0.604,4.018
		C300.207,170.405,300.006,171.749,299.603,172.938z"/>
	<path fill="#FFFFFF" d="M341.639,158.187c-0.81-0.717-1.837-1.27-3.083-1.668c-1.244-0.398-2.713-0.594-4.407-0.594h-8.074v25.955
		h4.215v-9.393h3.859c1.632,0,3.069-0.207,4.298-0.621c1.229-0.414,2.264-0.99,3.09-1.729c0.832-0.74,1.456-1.623,1.876-2.65
		c0.423-1.029,0.63-2.16,0.63-3.4c0-1.211-0.197-2.318-0.596-3.324C343.055,159.761,342.451,158.899,341.639,158.187z
		 M339.484,166.181c-0.242,0.625-0.598,1.156-1.074,1.596c-0.475,0.438-1.068,0.777-1.781,1.018c-0.72,0.24-1.546,0.361-2.48,0.361
		h-3.859v-9.936h3.859c0.961,0,1.798,0.115,2.517,0.336c0.713,0.223,1.307,0.543,1.771,0.965c0.471,0.42,0.822,0.932,1.055,1.531
		c0.238,0.602,0.352,1.281,0.352,2.035C339.842,164.856,339.723,165.554,339.484,166.181z"/>
	<path fill="#FFFFFF" d="M388.62,156.022c-0.206,0.068-0.393,0.27-0.563,0.605l-8.198,15.049c-0.182,0.352-0.352,0.713-0.517,1.09
		c-0.16,0.379-0.315,0.762-0.461,1.146c-0.129-0.385-0.278-0.76-0.438-1.127c-0.159-0.365-0.335-0.723-0.511-1.074l-8.329-15.084
		c-0.169-0.336-0.355-0.537-0.562-0.605c-0.201-0.066-0.49-0.098-0.864-0.098h-3.156v25.955h3.716v-17.793
		c0-0.299-0.012-0.623-0.026-0.971c-0.02-0.348-0.046-0.697-0.083-1.047l8.473,15.449c0.31,0.635,0.812,0.953,1.499,0.953h0.594
		c0.67,0,1.173-0.318,1.492-0.953l8.35-15.412c-0.037,0.348-0.063,0.695-0.083,1.035c-0.017,0.344-0.026,0.658-0.026,0.945v17.793
		h3.714v-25.955h-3.156C389.11,155.925,388.821,155.956,388.62,156.022z"/>
	<polygon fill="#FFFFFF" points="419.982,170.452 429.535,170.452 429.535,167.153 419.982,167.153 419.982,159.329 
		431.933,159.329 431.933,155.925 415.747,155.925 415.747,181.88 431.933,181.88 431.953,178.472 419.982,178.472 	"/>
	<path fill="#FFFFFF" d="M471.246,172.849c0,0.312,0.007,0.648,0.026,1.01c0.015,0.359,0.047,0.727,0.077,1.098l-14.272-18.328
		c-0.109-0.146-0.212-0.264-0.306-0.361c-0.099-0.096-0.201-0.17-0.305-0.219c-0.109-0.045-0.229-0.08-0.352-0.098
		c-0.129-0.018-0.284-0.025-0.46-0.025h-2.201v25.955h3.716v-17.07c0-0.287-0.013-0.604-0.032-0.943
		c-0.015-0.344-0.041-0.691-0.077-1.039l14.259,18.312c0.202,0.264,0.418,0.455,0.646,0.568c0.226,0.115,0.505,0.172,0.83,0.172
		h2.145v-25.955h-3.694V172.849z"/>
	<polygon fill="#FFFFFF" points="495.522,159.438 503.633,159.438 503.633,181.88 507.832,181.88 507.832,159.438 515.929,159.438 
		515.929,155.925 495.522,155.925 	"/>
	<rect x="60.086" y="203.503" fill="#AF272F" width="479.902" height="3"/>
	<path fill="#AF272F" d="M171.938,85.628c2.284,0.12,3.127,0.12,5.049,0.12c5.051,0,6.494-0.12,10.223-0.601l1.441,2.405
		c9.379,16.233,16.836,25.973,22.486,29.701c3.247,2.166,7.337,3.127,13.228,3.127c1.444,0,1.805-0.12,2.044-0.843l1.202-3.968
		c-4.329-0.721-7.935-2.526-10.942-5.531c-5.17-5.171-13.467-16.836-19.24-27.176c11.424-4.689,16.955-11.906,16.955-22.006
		c0-9.981-5.893-18.278-14.309-20.202c-4.21-1.082-8.659-1.443-15.993-1.443c-0.843,0-1.683,0-2.526,0l-7.696,0.241l-7.696,0.12
		h-4.087v80.206h9.861V85.628z M171.938,46.187c2.885-0.12,8.297-0.36,11.182-0.36c8.659,0,13.227,1.202,16.355,4.208
		c2.646,2.525,4.087,6.854,4.087,11.905c0,12.145-6.972,17.436-23.088,17.436c-2.885,0-4.449-0.119-8.536-0.359V46.187z"/>
</g>
</svg>
