<?xml version="1.0" encoding="utf-8"?>
<!-- Generator: Adobe Illustrator 19.0.0, SVG Export Plug-In . SVG Version: 6.00 Build 0)  -->
<svg version="1.1" id="Layer_1" xmlns="http://www.w3.org/2000/svg" xmlns:xlink="http://www.w3.org/1999/xlink" x="0px" y="0px"
	 viewBox="588.2 323.3 108 162.4" style="enable-background:new 588.2 323.3 108 162.4;" xml:space="preserve">
<style type="text/css">
	.st0{fill:#A8A8A8;}
</style>
<g>
	<path class="st0" d="M645.7,443.9c15.2-14.4,29.9-28.3,44.8-42.5c1.3,1.2,3.1,2.9,5.7,5.3c-18.8,17.7-37,34.9-55.1,52
		c-16.7-16.9-34.5-35-52.9-53.5c1-0.8,2.8-2.4,5.3-4.5c14.5,14.5,29,29.1,44.2,44.5c0-41.3,0-81.4,0-121.9c2.8,0,5.1,0,7.9,0
		C645.7,363.4,645.7,403.6,645.7,443.9z"/>
	<path class="st0" d="M692.4,478.4c0,2.4,0,4.7,0,7.3c-34,0-67.8,0-102,0c0-2.3,0-4.6,0-7.3C624.1,478.4,658,478.4,692.4,478.4z"/>
</g>
</svg>
