<?xml version="1.0" encoding="utf-8"?>
<!-- Generator: Adobe Illustrator 19.0.0, SVG Export Plug-In . SVG Version: 6.00 Build 0)  -->
<svg version="1.1" id="Layer_1" xmlns="http://www.w3.org/2000/svg" xmlns:xlink="http://www.w3.org/1999/xlink" x="0px" y="0px"
	 viewBox="0 0 153 71.3" style="enable-background:new 0 0 153 71.3;" xml:space="preserve">
<style type="text/css">
	.st0{fill:#A8A8A8;}
</style>
<g id="addXGg_1_">
	<g id="XMLID_1_">
		<path id="XMLID_17_" class="st0" d="M70.4,71.3C47.2,70.6,22.8,59.2,2,39.3c-2.7-2.5-2.7-4.3,0-6.9C23.4,11.6,48.6-0.6,78.6,0
			c28.5,0.6,52.2,13.2,72.7,32.5c2.7,2.5,1.9,4.3-0.3,6.6C133,58.3,102.9,71.4,70.4,71.3z M105.3,35.3c0-16.1-12.7-28.9-28.8-28.9
			c-15.9,0-28.9,12.9-28.9,28.9c-0.1,16,12.6,29,28.6,29.3C91.8,64.9,105.2,51.4,105.3,35.3z"/>
		<path id="XMLID_16_" class="st0" d="M76.5,26.8c4.8-0.1,9,3.9,9.1,8.7c0.1,5-4.1,9.4-9,9.4c-4.8,0-9.3-4.5-9.2-9.4
			C67.4,31,71.7,26.9,76.5,26.8z"/>
	</g>
</g>
</svg>
